<svg width="256" height="256" xmlns="http://www.w3.org/2000/svg" fill="none">
 <g>
  <title>Layer 1</title>
  <rect id="svg_1" fill="#5c4ee5" rx="60" height="256" width="256"/>
  <g stroke="null" id="svg_7">
   <path stroke="null" fill="#000000" id="svg_2" d="m33.97938,182.9249l0,-3.64289l-3.27473,0l0,3.63206l-1.70466,0l0,-8.72592l1.70466,0l0,3.66764l3.27473,0l0,-3.66764l1.70311,0l0,8.73675l-1.70311,0zm7.86122,0l-1.33031,0l-0.12066,-0.45788a3.6862,3.6862 0 0 1 -1.94597,0.54914c-1.19109,0 -1.70311,-0.792 -1.70311,-1.87945c0,-1.08127 0.58008,-1.71703 1.89183,-1.71703l1.57008,0l0,-0.65123c0,-0.70692 -0.20573,-0.94823 -1.24369,-0.94823a9.68808,9.68808 0 0 0 -1.80675,0.18563l-0.20573,-1.20192c0.7425,-0.20419 1.50975,-0.30783 2.28319,-0.30783c2.04806,0 2.6467,0.70692 2.6467,2.27236l-0.03558,4.15645zm-1.70466,-2.36672l-1.12922,0c-0.52594,0 -0.67753,0.13148 -0.67753,0.61566c0,0.48263 0.15159,0.63422 0.64659,0.63422a2.56781,2.56781 0 0 0 1.22667,-0.32639l-0.06652,-0.92348zm5.11242,2.50594a7.87669,7.87669 0 0 1 -2.24761,-0.36197l0.21656,-1.20192c0.63422,0.1748 1.287,0.2707 1.94597,0.27844c0.7193,0 0.83531,-0.15778 0.83531,-0.64195c0,-0.47644 0,-0.58008 -1.14314,-0.82139c-1.58245,-0.38053 -1.70466,-0.76106 -1.70466,-1.98155c0,-1.22203 0.58008,-1.81913 2.44252,-1.81913c0.65123,0 1.30402,0.0727 1.93823,0.22275l-0.15005,1.25142a12.73388,12.73388 0 0 0 -1.78819,-0.18717c-0.7193,0 -0.83995,0.15778 -0.83995,0.54914c0,0.39909 0,0.55069 0.92348,0.75642c1.82531,0.46406 1.99547,0.70692 1.99547,2.00011c0,1.287 -0.44241,1.93978 -2.40539,1.93978l-0.01856,0.01702zm7.46831,-0.13922l0,-4.39777c0,-0.34495 -0.15159,-0.50273 -0.52594,-0.50273c-0.59864,0.06652 -1.17872,0.2475 -1.70311,0.53213l0,4.36838l-1.71084,0l0,-8.85741l1.71084,0.24131l0,2.78438a5.94928,5.94928 0 0 1 2.38683,-0.59709c1.06889,0 1.4618,0.73786 1.4618,1.85625l0,4.57256l-1.61958,0zm3.00248,-7.18369l0,-1.55306l1.70466,0l0,1.55306l-1.70466,0zm0,7.18369l0,-6.30816l1.70466,0l0,6.30816l-1.70466,0zm2.93133,-6.24164c0,-1.58245 0.95442,-2.49511 3.17109,-2.49511a10.55278,10.55278 0 0 1 2.42395,0.29545l-0.18563,1.40766a13.35417,13.35417 0 0 0 -2.18264,-0.30783c-1.16016,0 -1.5345,0.39291 -1.5345,1.30556l0,3.32423c0,0.91266 0.37434,1.30402 1.5345,1.30402a13.90641,13.90641 0 0 0 2.18109,-0.22275l0.18717,1.40766a10.55278,10.55278 0 0 1 -2.42241,0.29545c-2.21822,0 -3.17264,-0.91266 -3.17264,-2.49511l0,-3.81923zm9.18998,6.38086c-2.22905,0 -2.82769,-1.18336 -2.82769,-2.47655l0,-1.56544c0,-1.287 0.59864,-2.47809 2.82769,-2.47809c2.23678,0 2.83388,1.19109 2.83388,2.47809l0,1.60102c0,1.2375 -0.59709,2.42395 -2.83388,2.42395l0,0.01702zm0,-5.16038c-0.86934,0 -1.20656,0.38053 -1.20656,1.08745l0,1.71703c0,0.70692 0.33722,1.08745 1.20656,1.08745c0.87089,0 1.21584,-0.38053 1.21584,-1.08745l0,-1.71703c0,-0.77808 -0.34495,-1.15397 -1.21584,-1.15397l0,0.06652zm7.42036,0.10364a12.66891,12.66891 0 0 0 -1.70311,0.91266l0,4.06055l-1.71084,0l0,-6.36384l1.48655,0l0,0.68991a7.28578,7.28578 0 0 1 1.70466,-0.82913l0.22275,1.52986zm6.59897,2.73797a1.94906,1.94906 0 0 1 -0.52594,1.64897a1.91813,1.91813 0 0 1 -1.62422,0.5677a9.55041,9.55041 0 0 1 -1.70466,-0.18717l0,2.58019l-1.70466,0.24131l0,-8.97961l1.29319,0l0.15778,0.53213c0.60328,-0.42848 1.32258,-0.65897 2.06044,-0.65278c1.31639,0 2.01094,0.75488 2.01094,2.18109l0.03713,2.06817zm-3.88575,0.70538c0.4718,0.10364 0.96061,0.15778 1.44478,0.17016c0.58008,0 0.82139,-0.27225 0.82139,-0.83995l0,-2.13469c0,-0.5182 -0.20573,-0.80902 -0.80438,-0.80902a2.34042,2.34042 0 0 0 -1.44942,0.56925l-0.01238,3.04425zm-39.03385,14.65355l-9.94022,0l0,-5.98795l26.61708,0l0,5.98795l-9.94022,0l0,29.92894l-6.73664,0l0,-29.92894zm0,0"/>
   <path stroke="null" fill="#000000" id="svg_3" d="m61.75662,221.1621a26.99297,26.99297 0 0 0 7.96331,-1.2375l1.02094,4.95464a27.79735,27.79735 0 0 1 -9.56433,1.72167c-8.18761,0 -11.0153,-3.83625 -11.0153,-10.13358l0,-6.88359c0,-5.55173 2.45334,-10.31302 10.791,-10.31302s10.23103,4.9005 10.23103,10.55588l0,5.60742l-14.49113,0l0,1.34114c0,3.14789 1.10602,4.38694 5.06447,4.38694m-5.11861,-11.05706l8.29125,0l0,-1.29319c0,-2.47809 -0.75023,-4.19358 -3.95845,-4.19358c-3.20203,0 -4.33125,1.71703 -4.33125,4.19203l-0.00155,1.29473zm31.95844,-4.83398a50.06771,50.06771 0 0 0 -6.82172,3.83625l0,16.92591l-6.59742,0l0,-26.26594l5.50378,0l0.43003,2.90503a28.92192,28.92192 0 0 1 6.82172,-3.4387l0.66361,6.03745zm15.92199,0a50.43277,50.43277 0 0 0 -6.82172,3.83625l0,16.92591l-6.59742,0l0,-26.26594l5.50997,0l0.4223,2.90503a29.03794,29.03794 0 0 1 6.82172,-3.4387l0.66516,6.03745zm21.79547,20.74359l-5.34136,0l-0.47798,-1.72167a14.11214,14.11214 0 0 1 -7.73902,2.32031c-4.75664,0 -6.82172,-3.28092 -6.82172,-7.80708c0,-5.33053 2.30175,-7.37859 7.58897,-7.37859l6.2602,0l0,-2.7488c0,-2.91277 -0.80438,-3.93989 -4.96238,-3.93989c-2.42859,0.02475 -4.84481,0.29545 -7.21463,0.80438l-0.80438,-5.00414a33.72342,33.72342 0 0 1 8.92083,-1.2375c8.18606,0 10.59145,2.90503 10.59145,9.49163l0,17.22136zm-6.51234,-9.92784l-4.81078,0c-2.13469,0 -2.73178,0.58627 -2.73178,2.58019c0,2.00011 0.58008,2.65289 2.62969,2.65289a10.24031,10.24031 0 0 0 4.91133,-1.34114l0.00155,-3.89194zm26.56139,-22.30284a18.92447,18.92447 0 0 0 -3.73416,-0.43467c-2.55544,0 -2.92978,1.13541 -2.92978,3.12933l0,3.28711l6.61598,0l-0.37434,5.16038l-6.26175,0l0,21.01584l-6.51234,0l0,-20.94933l-4.17656,0l0,-5.16038l4.158,0l0,-3.72797c0,-5.45583 2.50748,-8.13966 8.29125,-8.13966c1.89028,-0.00619 3.78211,0.2475 5.60588,0.76106l-0.68217,5.05828zm12.71995,32.77983c-8.91928,0 -11.31848,-4.95464 -11.31848,-10.3192l0,-6.64073c0,-5.38313 2.3992,-10.32075 11.31848,-10.32075c8.91773,0 11.34169,4.95464 11.34169,10.32075l0,6.64073c-0.01856,5.34755 -2.42395,10.3192 -11.34169,10.3192m0,-21.72277c-3.40777,0 -4.80459,1.56544 -4.80459,4.51997l0,7.06922c0,2.96227 1.33031,4.52616 4.80459,4.52616c3.48047,0 4.81078,-1.56389 4.81078,-4.52461l0,-7.06922c0,-2.97464 -1.34888,-4.53853 -4.81078,-4.53853l0,0.01702zm28.10363,0.43003a50.43277,50.43277 0 0 0 -6.82172,3.83625l0,16.92591l-6.58041,0l0,-26.26594l5.50378,0l0.43003,2.90503a28.92192,28.92192 0 0 1 6.82172,-3.4387l0.64659,6.03745zm17.90353,20.74359l0,-18.32119c0,-1.38909 -0.58008,-2.09602 -2.079,-2.09602a17.95922,17.95922 0 0 0 -6.82172,2.21667l0,18.21909l-6.48295,0l0,-26.26594l4.96547,0l0.64814,2.21667a25.89005,25.89005 0 0 1 10.41666,-2.75034a4.93453,4.93453 0 0 1 4.91288,2.80448a25.36256,25.36256 0 0 1 10.46461,-2.80448c4.3328,0 5.88586,3.07673 5.88586,7.75913l0,19.02192l-6.51234,0l0,-18.32119c0,-1.38909 -0.58163,-2.09602 -2.08055,-2.09602a17.09297,17.09297 0 0 0 -6.82172,2.21667l0,18.21909l-6.49533,-0.01856zm0,0"/>
   <path stroke="null" id="svg_4" d="m109.95725,52.84972l36.0855,21.01584l0,42.03633l-36.0855,-21.02203l0,-42.03014zm0,0" fill-rule="evenodd" fill="#000000"/>
   <path stroke="null" id="svg_5" d="m149.99501,73.86556l0,42.03633l36.09788,-21.02203l0,-42.03014l-36.09788,21.01584zm0,0" fill-rule="evenodd" fill="#000000"/>
   <path stroke="null" id="svg_6" d="m69.92567,29.38672l0,42.03478l36.07931,21.01584l0,-42.03014l-36.07931,-21.02049zm40.03158,112.12369l36.0855,21.02203l0,-42.01931l-36.0855,-21.02203l0,42.01931zm0,0" fill-rule="evenodd" fill="#000000"/>
  </g>
 </g>

</svg>